custom-analysis
version=1
nRows=6
nColumns=98
inDegrees=no

This file contains tibia displacement and acting force.

Units are S.I. units (seconds, meters, Newtons, ...)
Angles are in degrees.

endheader
time	APT	SIT	knee_angle	aACL_R_force	pACL_R_force	aPCL_R_force	pPCL_R_force	aMCL_R_force	mMCL_R_force	pMCL_R_force	aLCL_R_force	mLCL_R_force	pLCL_R_force	aPCL_L_force	pPCL_L_force	aMCL_L_force	aLCL_L_force	aACL_R_length	pACL_R_length	aPCL_R_length	pPCL_R_length	aMCL_R_length	mMCL_R_length	pMCL_R_length	aLCL_R_length	mLCL_R_length	pLCL_R_length	aPCL_L_length	pPCL_L_length	aMCL_L_length	aLCL_L_length	aACL_R_strain	pACL_R_strain	aPCL_R_strain	pPCL_R_strain	aMCL_R_strain	mMCL_R_strain	pMCL_R_strain	aLCL_R_strain	mLCL_R_strain	pLCL_R_strain	aPCL_L_strain	pPCL_L_strain	aMCL_L_strain	aLCL_L_strain	femur_lat_meniscii_r.femur_lat_r.force.X	femur_lat_meniscii_r.femur_lat_r.force.Y	femur_lat_meniscii_r.femur_lat_r.force.Z	femur_lat_meniscii_r.femur_lat_r.torque.X	femur_lat_meniscii_r.femur_lat_r.torque.Y	femur_lat_meniscii_r.femur_lat_r.torque.Z	femur_lat_meniscii_r.meniscus_lat_r.force.X	femur_lat_meniscii_r.meniscus_lat_r.force.Y	femur_lat_meniscii_r.meniscus_lat_r.force.Z	femur_lat_meniscii_r.meniscus_lat_r.torque.X	femur_lat_meniscii_r.meniscus_lat_r.torque.Y	femur_lat_meniscii_r.meniscus_lat_r.torque.Z	femur_med_meniscii_r.femur_med_r.force.X	femur_med_meniscii_r.femur_med_r.force.Y	femur_med_meniscii_r.femur_med_r.force.Z	femur_med_meniscii_r.femur_med_r.torque.X	femur_med_meniscii_r.femur_med_r.torque.Y	femur_med_meniscii_r.femur_med_r.torque.Z	femur_med_meniscii_r.meniscus_med_r.force.X	femur_med_meniscii_r.meniscus_med_r.force.Y	femur_med_meniscii_r.meniscus_med_r.force.Z	femur_med_meniscii_r.meniscus_med_r.torque.X	femur_med_meniscii_r.meniscus_med_r.torque.Y	femur_med_meniscii_r.meniscus_med_r.torque.Z	femur_med_tibia_r.tibia_upper_r.force.X	femur_med_tibia_r.tibia_upper_r.force.Y	femur_med_tibia_r.tibia_upper_r.force.Z	femur_med_tibia_r.tibia_upper_r.torque.X	femur_med_tibia_r.tibia_upper_r.torque.Y	femur_med_tibia_r.tibia_upper_r.torque.Z	femur_med_tibia_r.femur_med_r.force.X	femur_med_tibia_r.femur_med_r.force.Y	femur_med_tibia_r.femur_med_r.force.Z	femur_med_tibia_r.femur_med_r.torque.X	femur_med_tibia_r.femur_med_r.torque.Y	femur_med_tibia_r.femur_med_r.torque.Z	femur_lat_tibia_r.tibia_upper_r.force.X	femur_lat_tibia_r.tibia_upper_r.force.Y	femur_lat_tibia_r.tibia_upper_r.force.Z	femur_lat_tibia_r.tibia_upper_r.torque.X	femur_lat_tibia_r.tibia_upper_r.torque.Y	femur_lat_tibia_r.tibia_upper_r.torque.Z	femur_lat_tibia_r.femur_lat_r.force.X	femur_lat_tibia_r.femur_lat_r.force.Y	femur_lat_tibia_r.femur_lat_r.force.Z	femur_lat_tibia_r.femur_lat_r.torque.X	femur_lat_tibia_r.femur_lat_r.torque.Y	femur_lat_tibia_r.femur_lat_r.torque.Z	femur_lat_meniscii_force_r	femur_med_meniscii_force_r	femur_lat_tibia_force_r	femur_med_tibia_force_r
      0.07454674	      0.00770820	      0.00396936	     14.57040613	     62.45419893	     47.32123609	      0.00000000	      0.00000000	      0.00000000	     -7.22002834	    -25.04106437	      0.00000000	      0.00000000	      0.00000000	      0.00000000	      0.00000000	      0.00000001	      0.00000000	      0.03359992	      0.02700159	      0.02787868	      0.02778346	      0.05645767	      0.06000778	      0.06091245	      0.05335361	      0.05115677	      0.04847670	      0.01525851	      0.01651186	      0.06550154	      0.04489616	      0.08367614	      0.07753362	     -0.10344400	     -0.07040799	     -0.05946216	      0.00358359	      0.03719597	     -0.04686892	     -0.09165404	     -0.07385932	      0.00000079	     -0.32847694	      0.00000060	     -0.00000086	     78.58693476	    291.48399198	     22.63192231	    -16.32389987	      1.93004814	     32.78394067	    -78.58693476	   -291.48399198	    -22.63192231	      8.65224608	     -2.37024085	     -0.47555459	     29.88027652	    150.96587302	      4.20194372	      1.43011986	     -0.54265892	     11.92790610	    -29.88027652	   -150.96587302	     -4.20194372	     -2.52257143	      0.40853296	      0.65941112	     -2.07836724	   -567.75714311	     66.53357302	    -11.96348817	      0.31553772	      2.88887742	      2.07836724	    567.75714311	    -66.53357302	     39.39910050	      0.17966870	      2.19394379	     -7.56063946	   -343.64852830	    -71.09784803	     11.52338703	     -0.53361023	      1.35366620	      7.56063946	    343.64852830	     71.09784803	    -37.58419827	     -0.02908987	      4.13746288	    302.73920757	    153.95188233	    351.00766127	    571.64605264
      0.07577947	      0.00788505	      0.00407039	     14.99014922	     64.43663810	     48.30039728	      0.00000000	      0.00000000	      0.00000000	     -6.63922256	    -25.31160063	      0.00000000	      0.00000000	      0.00000000	      0.00000000	      0.00000000	      0.00000001	      0.00000000	      0.03363149	      0.02700852	      0.02790256	      0.02778231	      0.05649237	      0.05999577	      0.06085252	      0.05333294	      0.05111090	      0.04840215	      0.01525851	      0.01651186	      0.06550154	      0.04489616	      0.08469430	      0.07781013	     -0.10267607	     -0.07044647	     -0.05888405	      0.00338273	      0.03617557	     -0.04723820	     -0.09246855	     -0.07528370	      0.00000079	     -0.32847694	      0.00000060	     -0.00000086	     78.94945502	    292.53955891	     20.90596078	    -15.60952226	      1.92623879	     32.91754374	    -78.94945502	   -292.53955891	    -20.90596078	      8.59767025	     -2.35775775	     -0.39962848	     33.11231665	    151.74571320	      2.54053723	      2.13378368	     -0.61937526	     13.25987091	    -33.11231665	   -151.74571320	     -2.54053723	     -2.58960135	      0.48672886	      0.60400845	    -13.62989798	   -562.87949709	     68.23147113	    -11.95763311	      0.54504834	      2.60816814	     13.62989798	    562.87949709	    -68.23147113	     40.01829105	     -0.06193578	      6.98268560	     -8.98200447	   -330.46829547	    -66.59403495	     11.00094485	     -0.56794111	      1.34094469	      8.98200447	    330.46829547	     66.59403495	    -35.38756125	      0.02042155	      4.66527725	    303.72597712	    155.33718588	    337.23098346	    567.16367657
      0.07701219	      0.00806452	      0.00417237	     15.41475002	     64.75904211	     47.53611653	      0.00000000	      0.00000000	      0.00000000	     -5.19338083	    -24.76794055	      0.00000000	      0.00000000	      0.00000000	      0.00000000	      0.00000000	      0.00000001	      0.00000000	      0.03366422	      0.02701643	      0.02792734	      0.02778153	      0.05652971	      0.05998559	      0.06079387	      0.05331267	      0.05106495	      0.04832712	      0.01525851	      0.01651186	      0.06550154	      0.04489616	      0.08574983	      0.07812593	     -0.10187918	     -0.07047264	     -0.05826196	      0.00321255	      0.03517689	     -0.04760023	     -0.09328437	     -0.07671704	      0.00000079	     -0.32847694	      0.00000060	     -0.00000086	     70.57500880	    295.53850254	     23.64740536	    -16.83346906	      1.72117820	     29.36211760	    -70.57500880	   -295.53850254	    -23.64740536	      8.77708547	     -2.14951864	      0.03520622	     34.44270042	    154.79473625	      2.83380662	      2.06012689	     -0.63887921	     13.77711943	    -34.44270042	   -154.79473625	     -2.83380662	     -2.62011205	      0.49929210	      0.65391177	    -13.75220992	   -558.49264883	     62.98962193	    -11.66137288	      0.54889659	      2.80446374	     13.75220992	    558.49264883	    -62.98962193	     37.69177937	     -0.09312663	      6.91967440	     -1.34694153	   -317.44243498	    -66.20312063	     10.65333321	     -0.39553395	      1.69246084	      1.34694153	    317.44243498	     66.20312063	    -34.93991279	     -0.13715344	      1.35588767	    304.76718677	    158.60561290	    324.27514082	    562.20179166
      0.07824492	      0.00824211	      0.00427480	     15.84368269	     66.65713672	     48.37993322	      0.00000000	      0.00000000	      0.00000000	     -3.90718149	    -24.31519210	      0.00000000	      0.00000000	      0.00000000	      0.00000000	      0.00000000	      0.00000001	      0.00000000	      0.03369490	      0.02702208	      0.02795602	      0.02778401	      0.05657027	      0.05997795	      0.06073712	      0.05329393	      0.05101997	      0.04825272	      0.01525851	      0.01651186	      0.06550154	      0.04489616	      0.08673932	      0.07835114	     -0.10095688	     -0.07038950	     -0.05758619	      0.00308472	      0.03421065	     -0.04793502	     -0.09408315	     -0.07813846	      0.00000079	     -0.32847694	      0.00000060	     -0.00000086	     69.59411919	    295.72879732	     22.11116084	    -16.17851476	      1.68854591	     28.92697640	    -69.59411919	   -295.72879732	    -22.11116084	      8.70684101	     -2.10504790	      0.16042381	     35.48120384	    154.36247510	      0.56850423	      2.99965702	     -0.66643717	     14.19095536	    -35.48120384	   -154.36247510	     -0.56850423	     -2.69538370	      0.54177332	      0.66810183	    -20.74530789	   -545.49851250	     64.18050251	    -11.49107583	      0.69948314	      2.65397721	     20.74530789	    545.49851250	    -64.18050251	     37.92691392	     -0.24393800	      9.76285912	     -1.32080220	   -304.25478133	    -62.11836641	     10.15094154	     -0.39289441	      1.72438228	      1.32080220	    304.25478133	     62.11836641	    -32.92257200	     -0.12039311	      1.27387755	    304.61084423	    158.38880245	    310.53406886	    549.65273750
      0.07927432	      0.00839126	      0.00436183	     16.20566293	     66.58847551	     47.38001839	      0.00000000	      0.00000000	      0.00000000	     -3.98634964	    -25.09670361	      0.00000000	      0.00000000	      0.00000000	      0.00000000	      0.00000000	      0.00000001	      0.00000000	      0.03372035	      0.02702650	      0.02798053	      0.02778632	      0.05660542	      0.05997232	      0.06069006	      0.05327766	      0.05098143	      0.04818935	      0.01525851	      0.01651186	      0.06550154	      0.04489616	      0.08756027	      0.07852767	     -0.10016859	     -0.07031222	     -0.05700063	      0.00299065	      0.03340930	     -0.04822574	     -0.09476736	     -0.07934915	      0.00000079	     -0.32847694	      0.00000060	     -0.00000086	     64.20797427	    299.05256276	     23.48105638	    -16.82763939	      1.55571106	     26.63008134	    -64.20797427	   -299.05256276	    -23.48105638	      8.83893380	     -1.96880071	      0.47577427	     37.24720226	    156.16155051	      2.02549877	      2.42230362	     -0.71108981	     14.91103319	    -37.24720226	   -156.16155051	     -2.02549877	     -2.67181484	      0.56853222	      0.66814667	    -19.28266156	   -538.01892904	     60.92873449	    -11.22482965	      0.67862385	      2.84865706	     19.28266156	    538.01892904	    -60.92873449	     36.38488351	     -0.23357399	      9.04389344	      2.58939634	   -294.93346272	    -60.17765067	      9.83580758	     -0.30057075	      1.91380875	     -2.58939634	    294.93346272	     60.17765067	    -31.89928245	     -0.19448249	     -0.43690357	    306.76776112	    160.55493321	    301.02126510	    541.80116254
      0.08030373	      0.00853897	      0.00445116	     16.57072168	     66.80237254	     46.64263641	      0.00000000	      0.00000000	      0.00000000	     -4.46542651	    -26.22466528	      0.00000000	      0.00000000	      0.00000000	      0.00000000	      0.00000000	      0.00000001	      0.00000000	      0.03374345	      0.02702851	      0.02800578	      0.02778903	      0.05664068	      0.05996642	      0.06064233	      0.05326010	      0.05094127	      0.04812414	      0.01525851	      0.01651186	      0.06550154	      0.04489616	      0.08830535	      0.07860781	     -0.09935658	     -0.07022161	     -0.05641327	      0.00289201	      0.03259647	     -0.04853949	     -0.09548050	     -0.08059500	      0.00000079	     -0.32847694	      0.00000060	     -0.00000086	     62.07976688	    302.29277835	     24.36916892	    -17.27187120	      1.50158408	     25.70820155	    -62.07976688	   -302.29277835	    -24.36916892	      8.95055110	     -1.91872895	      0.66469182	     36.35903748	    155.44630909	      2.95066796	      2.01365312	     -0.69559308	     14.52659147	    -36.35903748	   -155.44630909	     -2.95066796	     -2.62159460	      0.54810033	      0.73482471	    -19.57307729	   -531.62809244	     59.40819099	    -11.04654738	      0.69562800	      2.97165019	     19.57307729	    531.62809244	    -59.40819099	     35.59826020	     -0.25340279	      9.07470080	      3.44918336	   -287.38023171	    -58.72116365	      9.58596392	     -0.28697286	      1.98443619	     -3.44918336	    287.38023171	     58.72116365	    -31.12045435	     -0.20359470	     -0.84850817	    309.56207405	    159.66916126	    293.33848964	    535.29512157
